<svg xmlns="http://www.w3.org/2000/svg" width="84" height="84" viewBox="0 0 84 84" fill="none">
<path d="M42 84C65.196 84 84 65.196 84 42C84 18.804 65.196 0 42 0C18.804 0 0 18.804 0 42C0 65.196 18.804 84 42 84Z" fill="url(#paint0_radial_421_43845)"/>
<path d="M42 84C65.196 84 84 65.196 84 42C84 18.804 65.196 0 42 0C18.804 0 0 18.804 0 42C0 65.196 18.804 84 42 84Z" fill="url(#paint1_radial_421_43845)"/>
<path d="M80.7844 25.3023C80.885 25.4011 80.885 25.5986 80.9856 25.6974C80.9856 25.6974 80.9856 25.6974 80.9856 25.5986C80.7844 25.1047 80.4825 24.5119 80.2813 24.0179L79.4763 22.7336C75.7534 18.2878 65.591 16.8059 59.6545 16.4107C58.5477 14.0396 56.636 5.44449 56.0322 2.57944C55.7304 1.09751 54.4223 1.19631 53.0137 1.78908C53.2149 5.2469 54.9254 11.6686 56.4347 16.3119C53.8186 16.5095 51.7056 16.8059 49.8945 17.2011C46.5741 10.2854 40.7382 0.60354 35.1036 0.899925C33.7956 1.09751 31.9844 1.49269 30.6764 1.78908C31.7832 1.49269 32.7894 1.88787 33.0913 1.98667C37.5185 3.3698 42.0463 9.59387 45.9704 18.189C42.0463 19.177 40.3358 19.6709 38.6253 20.3625C29.3684 3.66618 16.5898 8.70472 12.5651 11.9649C12.3639 12.1625 11.8608 12.5577 11.1564 13.2493C10.3515 14.1384 9.34531 15.324 8.43974 16.3119C9.8484 14.7312 9.94902 14.7312 10.3515 14.336C19.4071 7.124 29.1671 12.5577 34.2987 20.7577C34.7011 21.4493 34.4999 21.3505 34.9024 22.042C35.003 22.042 35.003 21.9432 35.1036 21.9432C17.6966 30.8348 -1.42086 48.0251 2.50326 57.9046C3.8113 46.3456 22.3251 32.9095 36.5123 25.6974C41.9457 39.8251 38.0215 56.9166 33.7956 66.1045C28.5634 75.1937 25.8467 79.6394 22.8282 79.6394C24.0356 80.2322 25.4443 80.825 26.7523 81.3189C26.8529 81.3189 27.0541 81.2202 27.1548 81.1214C30.777 80.2322 35.8079 70.9455 37.7197 66.8949C41.0401 59.2877 47.0772 41.9986 40.1345 23.9191C41.845 23.1288 43.6562 22.536 47.2784 21.548C56.8372 44.1721 62.3712 78.4539 53.3155 82.3069C53.2149 82.3069 53.1143 82.4057 53.0137 82.4057C54.3217 82.0105 55.9316 81.4177 57.2397 81.0226C64.6854 77.7623 63.3774 49.2106 51.3032 20.4613C52.6112 20.1649 54.3217 19.6709 57.3403 19.2758C62.6731 33.601 69.7163 39.7263 77.0615 55.5335C79.5769 59.9793 78.772 62.5479 78.3695 63.4371C78.2689 63.5359 78.2689 63.7335 78.1683 63.8323C78.5708 63.0419 79.1745 61.9552 79.6776 61.1648L80.1806 60.1768C80.2813 59.8805 80.3819 59.5841 80.4825 59.2877C80.6837 57.9046 80.885 56.3238 78.8726 52.4708C73.7411 41.6034 65.6916 30.242 60.8619 19.2758C71.4268 19.4734 79.5769 23.2276 80.7844 25.3023Z" fill="url(#paint2_radial_421_43845)"/>
<path d="M80.7844 25.3023C80.885 25.4011 80.885 25.5986 80.9856 25.6974C80.9856 25.6974 80.9856 25.6974 80.9856 25.5986C80.7844 25.1047 80.4825 24.5119 80.2813 24.0179L79.4763 22.7336C75.7534 18.2878 65.591 16.8059 59.6545 16.4107C58.5477 14.0396 56.636 5.44449 56.0322 2.57944C55.7304 1.09751 54.4223 1.19631 53.0137 1.78908C53.2149 5.2469 54.9254 11.6686 56.4347 16.3119C53.8186 16.5095 51.7056 16.8059 49.8945 17.2011C46.5741 10.2854 40.7382 0.60354 35.1036 0.899925C33.7956 1.09751 31.9844 1.49269 30.6764 1.78908C31.7832 1.49269 32.7894 1.88787 33.0913 1.98667C37.5185 3.3698 42.0463 9.59387 45.9704 18.189C42.0463 19.177 40.3358 19.6709 38.6253 20.3625C29.3684 3.66618 16.5898 8.70472 12.5651 11.9649C12.3639 12.1625 11.8608 12.5577 11.1564 13.2493C10.3515 14.1384 9.34531 15.324 8.43974 16.3119C9.8484 14.7312 9.94902 14.7312 10.3515 14.336C19.4071 7.124 29.1671 12.5577 34.2987 20.7577C34.7011 21.4493 34.4999 21.3505 34.9024 22.042C35.003 22.042 35.003 21.9432 35.1036 21.9432C17.6966 30.8348 -1.42086 48.0251 2.50326 57.9046C3.8113 46.3456 22.3251 32.9095 36.5123 25.6974C41.9457 39.8251 38.0215 56.9166 33.7956 66.1045C28.5634 75.1937 25.8467 79.6394 22.8282 79.6394C24.0356 80.2322 25.4443 80.825 26.7523 81.3189C26.8529 81.3189 27.0541 81.2202 27.1548 81.1214C30.777 80.2322 35.8079 70.9455 37.7197 66.8949C41.0401 59.2877 47.0772 41.9986 40.1345 23.9191C41.845 23.1288 43.6562 22.536 47.2784 21.548C56.8372 44.1721 62.3712 78.4539 53.3155 82.3069C53.2149 82.3069 53.1143 82.4057 53.0137 82.4057C54.3217 82.0105 55.9316 81.4177 57.2397 81.0226C64.6854 77.7623 63.3774 49.2106 51.3032 20.4613C52.6112 20.1649 54.3217 19.6709 57.3403 19.2758C62.6731 33.601 69.7163 39.7263 77.0615 55.5335C79.5769 59.9793 78.772 62.5479 78.3695 63.4371C78.2689 63.5359 78.2689 63.7335 78.1683 63.8323C78.5708 63.0419 79.1745 61.9552 79.6776 61.1648L80.1806 60.1768C80.2813 59.8805 80.3819 59.5841 80.4825 59.2877C80.6837 57.9046 80.885 56.3238 78.8726 52.4708C73.7411 41.6034 65.6916 30.242 60.8619 19.2758C71.4268 19.4734 79.5769 23.2276 80.7844 25.3023Z" fill="url(#paint3_radial_421_43845)"/>
<path d="M10.452 14.336C14.678 10.977 19.0046 10.3843 23.0293 11.471C19.1052 10.2855 14.7786 10.7794 10.5527 13.9409C9.84832 14.7312 9.14399 15.5216 8.54028 16.3119C9.84832 14.83 9.94894 14.7312 10.452 14.336Z" fill="url(#paint4_radial_421_43845)"/>
<path d="M38.4238 20.1649C34.701 13.4469 30.3744 10.2855 26.249 9.09991C30.2738 10.2855 34.6003 13.5457 38.2226 20.2637C38.3232 20.2637 38.4238 20.2637 38.4238 20.1649Z" fill="url(#paint5_radial_421_43845)"/>
<path d="M49.492 17.1023C49.5926 17.1023 49.6932 17.1023 49.6932 17.0035C46.6747 10.7795 41.6437 2.28311 36.5122 0.998779C41.6437 2.67829 46.574 10.9771 49.492 17.1023Z" fill="url(#paint6_radial_421_43845)"/>
<path d="M55.6299 2.48066C56.2336 5.34571 58.1453 13.9409 59.2521 16.3119C59.3527 16.3119 59.4534 16.3119 59.554 16.3119C58.4472 13.8421 56.5354 5.34571 55.9317 2.57945C55.8311 1.88789 55.4286 1.5915 54.9255 1.49271C55.2274 1.6903 55.5292 1.98668 55.6299 2.48066Z" fill="url(#paint7_radial_421_43845)"/>
<path d="M32.588 1.88787C32.3868 1.78907 31.9843 1.69028 31.4812 1.69028C31.1794 1.78907 30.8775 1.78907 30.6763 1.88787C31.3806 1.59148 32.0849 1.69028 32.588 1.88787Z" fill="url(#paint8_radial_421_43845)"/>
<path d="M36.2104 25.5986C22.2244 32.7119 4.11313 45.7528 2.302 57.3118C2.40262 57.5094 2.40262 57.8058 2.50324 58.0034C3.81128 46.4444 22.1238 33.1071 36.311 25.7962C36.311 25.7962 36.2104 25.6974 36.2104 25.5986Z" fill="url(#paint9_radial_421_43845)"/>
<path d="M60.8617 19.3746C65.3895 19.4733 69.5149 20.1649 72.7346 21.1529C69.4142 20.1649 65.1883 19.3746 60.5598 19.2758C65.4901 30.242 73.439 41.5046 78.5705 52.4708C80.5829 56.3238 80.3816 57.9045 80.1804 59.2877C80.0798 59.5841 79.9792 59.8804 79.8785 60.1768L79.3755 61.1648C79.1742 61.4612 78.973 61.8563 78.7717 62.1527C78.6711 62.7455 78.4699 63.2395 78.3693 63.4371C78.2687 63.5359 78.2686 63.7334 78.168 63.8322C78.5705 63.0419 79.1742 61.9551 79.6773 61.1648L80.1804 60.1768C80.281 59.8804 80.3816 59.5841 80.4823 59.2877C80.6835 57.9045 80.8847 56.3238 78.8724 52.4708C73.7408 41.6034 65.792 30.3408 60.8617 19.3746Z" fill="url(#paint10_radial_421_43845)"/>
<path d="M80.8849 25.6974C80.6836 25.2035 80.3818 24.6107 80.1805 24.1167L79.3756 22.8324C77.7657 20.8565 74.7471 19.4734 71.5273 18.4854C74.6465 19.4734 77.4638 20.8565 79.0737 22.7336L79.8787 24.0179C79.9793 24.2155 80.0799 24.4131 80.1805 24.7095C80.4824 24.9071 80.6836 25.2035 80.7842 25.4011C80.7842 25.4998 80.8849 25.5986 80.8849 25.6974Z" fill="url(#paint11_radial_421_43845)"/>
<path d="M40.2351 23.9191C41.9456 23.1288 43.6561 22.536 47.1778 21.5481C47.1778 21.4493 47.1778 21.4493 47.0772 21.3505C43.4549 22.3384 41.6438 22.9312 39.9333 23.7215C46.8759 41.801 40.8388 59.0901 37.5184 66.6973C35.5061 70.7479 30.5758 80.0346 26.9535 80.9238C26.8529 80.9238 26.6516 81.0226 26.551 81.0226C26.6516 81.0226 26.7523 81.1214 26.8529 81.1214C26.9535 81.1214 27.1547 81.0226 27.2554 80.9238C30.8776 80.0346 35.9085 70.7479 37.8203 66.6973C41.1407 59.2877 47.1778 41.9986 40.2351 23.9191Z" fill="url(#paint12_radial_421_43845)"/>
<path d="M57.1389 19.4734V19.3746C54.1204 19.7698 52.4098 20.2637 51.1018 20.5601C63.176 49.2106 64.4841 77.7623 57.0383 81.1214C56.2333 81.4177 55.1265 81.7141 54.221 82.1093C54.0197 82.3069 53.7179 82.4057 53.5166 82.5045C53.416 82.5045 53.3154 82.6033 53.2148 82.6033C54.5228 82.2081 56.1327 81.6153 57.4408 81.2202C64.8865 77.9599 63.5785 49.4082 51.5043 20.6589C52.6111 20.2637 54.3216 19.8685 57.1389 19.4734Z" fill="url(#paint13_radial_421_43845)"/>
<g opacity="0.3">
<path d="M55.5291 80.5286C54.9254 81.3189 54.2211 82.0105 53.4161 82.3069C53.3155 82.3069 53.2149 82.4057 53.1143 82.4057C53.4161 82.3069 53.718 82.2081 54.0198 82.1093C54.5229 81.8129 55.026 81.2201 55.5291 80.5286Z" fill="url(#paint14_radial_421_43845)"/>
<path d="M22.9287 79.6395C23.0293 79.7383 23.2306 79.7383 23.3312 79.8371C25.0417 79.5407 26.6516 77.7624 28.8652 74.5021C26.551 77.96 24.7398 79.6395 22.9287 79.6395Z" fill="url(#paint15_radial_421_43845)"/>
<path d="M10.9552 13.5457C11.6595 12.8541 12.1626 12.459 12.3638 12.2614C16.3885 9.00114 29.2677 3.9626 38.424 20.6589C40.0339 19.9674 41.7444 19.4734 45.7691 18.4854C45.7691 18.3867 45.6685 18.3866 45.6685 18.2879C41.9456 19.177 40.2351 19.7698 38.6252 20.4613C29.3683 3.66622 16.5898 8.70475 12.5651 11.965C12.3638 12.1626 11.8607 12.5578 11.1564 13.2493C10.3514 14.1385 9.34526 15.324 8.4397 16.312C8.64093 16.1144 8.84217 15.9168 9.04341 15.7192C9.64712 14.9288 10.3514 14.2373 10.9552 13.5457Z" fill="url(#paint16_radial_421_43845)"/>
<path d="M31.9846 1.69027C32.9908 1.49268 33.997 1.2951 34.8019 1.1963C40.5371 0.801121 46.2724 10.5818 49.5928 17.4975C51.3033 17.1023 53.5169 16.8059 56.133 16.6083C56.133 16.5095 56.0324 16.4107 56.0324 16.4107C53.5169 16.6083 51.4039 16.9047 49.794 17.2999C46.4736 10.3842 40.6378 0.702326 35.0031 0.99871C33.6951 1.1963 31.884 1.59148 30.5759 1.88786C31.079 1.69027 31.5821 1.69027 31.9846 1.69027Z" fill="url(#paint17_radial_421_43845)"/>
<path d="M52.9128 1.98669C54.2209 1.49271 55.4283 1.39392 55.7302 2.77705C56.3339 5.6421 58.2456 14.2373 59.3524 16.6083C65.2889 17.0035 75.552 18.4854 79.1742 22.9312L79.9792 24.2155C79.9792 24.3143 80.0798 24.4131 80.0798 24.5119C80.3817 24.8083 80.5829 25.0059 80.6835 25.2035C80.7841 25.3023 80.7841 25.4999 80.8848 25.5987C80.8848 25.5987 80.8848 25.5987 80.8848 25.4999C80.6835 25.0059 80.3817 24.4131 80.1804 23.9191L79.3755 22.6348C75.6526 18.189 65.4901 16.7071 59.5537 16.3119C58.4469 13.9409 56.5351 5.34571 55.9314 2.48066C55.6295 0.998738 54.3215 1.09753 52.9128 1.6903C52.9128 1.88789 52.9128 1.98669 52.9128 1.98669Z" fill="url(#paint18_radial_421_43845)"/>
<path d="M60.9625 19.671C60.8619 19.671 60.7613 19.671 60.6606 19.671C65.5909 30.6372 73.5398 41.8998 78.6713 52.7673C80.6837 56.6203 80.4825 58.201 80.2812 59.5841C80.1806 59.8805 80.08 60.1769 79.9794 60.4733L79.4763 61.4612C79.1744 62.054 78.772 62.7456 78.3695 63.3383V63.4371C78.2689 63.5359 78.2689 63.7335 78.1682 63.8323C78.5707 63.0419 79.1744 61.9552 79.6775 61.1648L80.1806 60.1769C80.2812 59.8805 80.3818 59.5841 80.4825 59.2877C80.6837 57.9046 80.8849 56.3239 78.8726 52.4709C73.741 41.7022 65.8928 30.5384 60.9625 19.671Z" fill="url(#paint19_radial_421_43845)"/>
<path d="M51.2026 20.8565C62.0694 46.5431 64.1824 72.131 59.1515 79.5406C64.3836 72.5262 62.3713 46.7407 51.4039 20.7577C51.4039 20.7577 51.3033 20.8565 51.2026 20.8565Z" fill="url(#paint20_radial_421_43845)"/>
<path d="M40.2352 24.1168C40.1346 24.1168 40.034 24.2156 40.034 24.2156C46.9766 42.295 40.9395 59.5841 37.6191 67.1913C36.613 69.1672 35.0031 72.3287 33.0913 75.2925C35.0031 72.3287 36.8142 68.9696 37.8204 66.9937C41.1408 59.2877 47.0773 42.0974 40.2352 24.1168Z" fill="url(#paint21_radial_421_43845)"/>
<path d="M34.9023 22.3384C34.8017 22.3384 34.8017 22.4372 34.701 22.4372C34.701 22.4372 34.701 22.3384 34.6004 22.3384C22.8281 28.3649 10.2508 38.3432 4.81738 47.0371C10.452 38.2444 23.0293 28.3649 34.9023 22.3384Z" fill="url(#paint22_radial_421_43845)"/>
<path d="M2.40283 57.707C2.40283 57.8058 2.40283 57.9046 2.50345 58.0034C2.80531 55.5335 3.91211 52.866 5.522 50.2974C3.91211 52.7673 2.80531 55.2371 2.40283 57.707Z" fill="url(#paint23_radial_421_43845)"/>
</g>
<defs>
<radialGradient id="paint0_radial_421_43845" cx="0" cy="0" r="1" gradientUnits="userSpaceOnUse" gradientTransform="translate(33 13.5) rotate(64.3094) scale(75.6184)">
<stop offset="0.0217634" stop-color="#FF8616"/>
<stop offset="0.684809" stop-color="#B54600"/>
<stop offset="0.87037" stop-color="#F76900"/>
</radialGradient>
<radialGradient id="paint1_radial_421_43845" cx="0" cy="0" r="1" gradientUnits="userSpaceOnUse" gradientTransform="translate(25.5 9) rotate(61.1373) scale(72.5069 78.6028)">
<stop stop-color="#FFC188" stop-opacity="0.8"/>
<stop offset="0.677083" stop-color="#FF7A00" stop-opacity="0.4"/>
</radialGradient>
<radialGradient id="paint2_radial_421_43845" cx="0" cy="0" r="1" gradientUnits="userSpaceOnUse" gradientTransform="translate(33.9722 27.7973) scale(60.5815 59.4836)">
<stop stop-color="#3D342D"/>
<stop offset="0.387" stop-color="#393029"/>
<stop offset="0.8121" stop-color="#2C221F"/>
<stop offset="1" stop-color="#241A18"/>
</radialGradient>
<radialGradient id="paint3_radial_421_43845" cx="0" cy="0" r="1" gradientUnits="userSpaceOnUse" gradientTransform="translate(41.1568 22.259) scale(54.4903 53.5027)">
<stop stop-color="#636363"/>
<stop offset="0.1939" stop-color="#414141"/>
<stop offset="0.3959" stop-color="#242424"/>
<stop offset="0.5985" stop-color="#101010"/>
<stop offset="0.8002" stop-color="#040404"/>
<stop offset="1"/>
</radialGradient>
<radialGradient id="paint4_radial_421_43845" cx="0" cy="0" r="1" gradientUnits="userSpaceOnUse" gradientTransform="translate(14.3224 12.7176) scale(7.80924 7.66771)">
<stop stop-color="#3D342D"/>
<stop offset="0.387" stop-color="#393029"/>
<stop offset="0.8121" stop-color="#2C221F"/>
<stop offset="1" stop-color="#241A18"/>
</radialGradient>
<radialGradient id="paint5_radial_421_43845" cx="0" cy="0" r="1" gradientUnits="userSpaceOnUse" gradientTransform="translate(31.2214 12.8085) scale(8.73726 8.57891)">
<stop stop-color="#3D342D"/>
<stop offset="0.387" stop-color="#393029"/>
<stop offset="0.8121" stop-color="#2C221F"/>
<stop offset="1" stop-color="#241A18"/>
</radialGradient>
<radialGradient id="paint6_radial_421_43845" cx="0" cy="0" r="1" gradientUnits="userSpaceOnUse" gradientTransform="translate(41.9202 6.38204) scale(11.1986 10.9957)">
<stop stop-color="#3D342D"/>
<stop offset="0.387" stop-color="#393029"/>
<stop offset="0.8121" stop-color="#2C221F"/>
<stop offset="1" stop-color="#241A18"/>
</radialGradient>
<radialGradient id="paint7_radial_421_43845" cx="0" cy="0" r="1" gradientUnits="userSpaceOnUse" gradientTransform="translate(56.7746 6.39321) scale(8.76529 8.60643)">
<stop stop-color="#3D342D"/>
<stop offset="0.387" stop-color="#393029"/>
<stop offset="0.8121" stop-color="#2C221F"/>
<stop offset="1" stop-color="#241A18"/>
</radialGradient>
<radialGradient id="paint8_radial_421_43845" cx="0" cy="0" r="1" gradientUnits="userSpaceOnUse" gradientTransform="translate(31.4008 1.69132) scale(0.995597 0.977553)">
<stop stop-color="#3D342D"/>
<stop offset="0.387" stop-color="#393029"/>
<stop offset="0.8121" stop-color="#2C221F"/>
<stop offset="1" stop-color="#241A18"/>
</radialGradient>
<radialGradient id="paint9_radial_421_43845" cx="0" cy="0" r="1" gradientUnits="userSpaceOnUse" gradientTransform="translate(16.0521 36.2825) scale(24.9138 24.4623)">
<stop stop-color="#3D342D"/>
<stop offset="0.387" stop-color="#393029"/>
<stop offset="0.8121" stop-color="#2C221F"/>
<stop offset="1" stop-color="#241A18"/>
</radialGradient>
<radialGradient id="paint10_radial_421_43845" cx="0" cy="0" r="1" gradientUnits="userSpaceOnUse" gradientTransform="translate(68.6877 33.9689) scale(27.2093 26.7161)">
<stop stop-color="#3D342D"/>
<stop offset="0.387" stop-color="#393029"/>
<stop offset="0.8121" stop-color="#2C221F"/>
<stop offset="1" stop-color="#241A18"/>
</radialGradient>
<radialGradient id="paint11_radial_421_43845" cx="0" cy="0" r="1" gradientUnits="userSpaceOnUse" gradientTransform="translate(75.3328 20.8364) scale(6.23644 6.12342)">
<stop stop-color="#3D342D"/>
<stop offset="0.387" stop-color="#393029"/>
<stop offset="0.8121" stop-color="#2C221F"/>
<stop offset="1" stop-color="#241A18"/>
</radialGradient>
<radialGradient id="paint12_radial_421_43845" cx="0" cy="0" r="1" gradientUnits="userSpaceOnUse" gradientTransform="translate(34.8645 41.1687) scale(35.4678 34.825)">
<stop stop-color="#3D342D"/>
<stop offset="0.387" stop-color="#393029"/>
<stop offset="0.8121" stop-color="#2C221F"/>
<stop offset="1" stop-color="#241A18"/>
</radialGradient>
<radialGradient id="paint13_radial_421_43845" cx="0" cy="0" r="1" gradientUnits="userSpaceOnUse" gradientTransform="translate(55.4475 40.1447) scale(36.2456 35.5887)">
<stop stop-color="#3D342D"/>
<stop offset="0.387" stop-color="#393029"/>
<stop offset="0.8121" stop-color="#2C221F"/>
<stop offset="1" stop-color="#241A18"/>
</radialGradient>
<radialGradient id="paint14_radial_421_43845" cx="0" cy="0" r="1" gradientUnits="userSpaceOnUse" gradientTransform="translate(54.0534 81.1886) scale(1.63124 1.60167)">
<stop stop-color="#3D342D"/>
<stop offset="0.387" stop-color="#393029"/>
<stop offset="0.8121" stop-color="#2C221F"/>
<stop offset="1" stop-color="#241A18"/>
</radialGradient>
<radialGradient id="paint15_radial_421_43845" cx="0" cy="0" r="1" gradientUnits="userSpaceOnUse" gradientTransform="translate(25.3056 76.2042) scale(4.24555 4.16861)">
<stop stop-color="#3D342D"/>
<stop offset="0.387" stop-color="#393029"/>
<stop offset="0.8121" stop-color="#2C221F"/>
<stop offset="1" stop-color="#241A18"/>
</radialGradient>
<radialGradient id="paint16_radial_421_43845" cx="0" cy="0" r="1" gradientUnits="userSpaceOnUse" gradientTransform="translate(23.5488 12.5618) scale(19.6584 19.3021)">
<stop stop-color="#3D342D"/>
<stop offset="0.387" stop-color="#393029"/>
<stop offset="0.8121" stop-color="#2C221F"/>
<stop offset="1" stop-color="#241A18"/>
</radialGradient>
<radialGradient id="paint17_radial_421_43845" cx="0" cy="0" r="1" gradientUnits="userSpaceOnUse" gradientTransform="translate(40.9621 6.38714) scale(15.7658 15.48)">
<stop stop-color="#3D342D"/>
<stop offset="0.387" stop-color="#393029"/>
<stop offset="0.8121" stop-color="#2C221F"/>
<stop offset="1" stop-color="#241A18"/>
</radialGradient>
<radialGradient id="paint18_radial_421_43845" cx="0" cy="0" r="1" gradientUnits="userSpaceOnUse" gradientTransform="translate(64.2656 9.4419) scale(19.5582 19.2038)">
<stop stop-color="#3D342D"/>
<stop offset="0.387" stop-color="#393029"/>
<stop offset="0.8121" stop-color="#2C221F"/>
<stop offset="1" stop-color="#241A18"/>
</radialGradient>
<radialGradient id="paint19_radial_421_43845" cx="0" cy="0" r="1" gradientUnits="userSpaceOnUse" gradientTransform="translate(68.7734 34.2025) scale(26.9993 26.51)">
<stop stop-color="#3D342D"/>
<stop offset="0.387" stop-color="#393029"/>
<stop offset="0.8121" stop-color="#2C221F"/>
<stop offset="1" stop-color="#241A18"/>
</radialGradient>
<radialGradient id="paint20_radial_421_43845" cx="0" cy="0" r="1" gradientUnits="userSpaceOnUse" gradientTransform="translate(55.5329 40.1457) scale(33.7854 33.1731)">
<stop stop-color="#3D342D"/>
<stop offset="0.387" stop-color="#393029"/>
<stop offset="0.8121" stop-color="#2C221F"/>
<stop offset="1" stop-color="#241A18"/>
</radialGradient>
<radialGradient id="paint21_radial_421_43845" cx="0" cy="0" r="1" gradientUnits="userSpaceOnUse" gradientTransform="translate(37.2704 40.9479) scale(29.4698 28.9357)">
<stop stop-color="#3D342D"/>
<stop offset="0.387" stop-color="#393029"/>
<stop offset="0.8121" stop-color="#2C221F"/>
<stop offset="1" stop-color="#241A18"/>
</radialGradient>
<radialGradient id="paint22_radial_421_43845" cx="0" cy="0" r="1" gradientUnits="userSpaceOnUse" gradientTransform="translate(17.0086 30.4318) scale(20.5103 20.1386)">
<stop stop-color="#3D342D"/>
<stop offset="0.387" stop-color="#393029"/>
<stop offset="0.8121" stop-color="#2C221F"/>
<stop offset="1" stop-color="#241A18"/>
</radialGradient>
<radialGradient id="paint23_radial_421_43845" cx="0" cy="0" r="1" gradientUnits="userSpaceOnUse" gradientTransform="translate(3.65393 52.8093) scale(4.62866 4.54477)">
<stop stop-color="#3D342D"/>
<stop offset="0.387" stop-color="#393029"/>
<stop offset="0.8121" stop-color="#2C221F"/>
<stop offset="1" stop-color="#241A18"/>
</radialGradient>
</defs>
</svg>